# xmcd CD database file
#
# Track frame offsets:
#	150
#	12676
#	24623
#	39241
#	53850
#	65600
#	78150
#	93322
#	109150
#	123150
#	138810
#	152028
#	164780
#	177019
#	189282
#	203679
#	215719
#	228515
#	240064
#	254166
#	265947
#	279241
#	291619
#	305070
#	318457
#
# Disc length: 4430 seconds
#
# Revision: 0
# Processed by: cddbd v1.5.2PL0 Copyright (c) Steve Scherf et al.
# Submitted via: CDex 1.70beta2
#
DISCID=68114c19
DTITLE=Charlie Parker - Bebop Story Vol 9 1951-52 CD 031
DYEAR=2008
DGENRE=Jazz
TTITLE0=Blues For Alice
TTITLE1=Si Si
TTITLE2=Swedish Schnapps
TTITLE3=Swedish Schnapps
TTITLE4=Back Home Blues
TTITLE5=Back Home Blues
TTITLE6=Lover Man
TTITLE7=Temptation
TTITLE8=Lover
TTITLE9=Autumn In New York
TTITLE10=Stella By Starlight
TTITLE11=Mama Inez
TTITLE12=La Cucaracha
TTITLE13=Estrellita
TTITLE14=Begin The Beguine
TTITLE15=La Paloma
TTITLE16=Night And Day
TTITLE17=Almost Like Being In Love
TTITLE18=I Can't Get Started
TTITLE19=What Is This Thing Called Love
TTITLE20=The Song is You
TTITLE21=Laird Baird
TTITLE22=Kim
TTITLE23=Kim
TTITLE24=Cosmic Rays
EXTD=YEAR: 2008
EXTT0=
EXTT1=
EXTT2=
EXTT3=
EXTT4=
EXTT5=
EXTT6=
EXTT7=
EXTT8=
EXTT9=
EXTT10=
EXTT11=
EXTT12=
EXTT13=
EXTT14=
EXTT15=
EXTT16=
EXTT17=
EXTT18=
EXTT19=
EXTT20=
EXTT21=
EXTT22=
EXTT23=
EXTT24=
PLAYORDER=
